<?xml version="1.0" encoding="UTF-8"?>
<svg id="Layer_2" data-name="Layer 2" xmlns="http://www.w3.org/2000/svg" viewBox="0 0 792.32 176.26">
  <defs>
    <style>
      .cls-1 {
        fill: #006a49;
      }
    </style>
  </defs>
  <g id="Edits">
    <g>
      <g>
        <path class="cls-1" d="M158.62,0H17.62C7.89,0,0,8.69,0,19.41v88.16h176.25V19.41c0-10.72-7.89-19.41-17.62-19.41Z"/>
        <path class="cls-1" d="M0,158.25c0,9.95,7.89,18.01,17.62,18.01h141c9.73,0,17.62-8.06,17.62-18.01v-17.24H0v17.24Z"/>
      </g>
      <g>
        <g>
          <path class="cls-1" d="M269.55,7.28h13.63v64.92h-15.12V31.58l-19.1,23.37h-2.97l-19.29-23.46v40.71h-15.12V7.28h13.63l22.16,27.64,22.16-27.64Z"/>
          <path class="cls-1" d="M356.72,72.2l-4.82-11.69h-32l-4.82,11.69h-16.23l29.12-64.92h16.23l28.93,64.92h-16.41ZM336.04,21.84l-10.67,25.6h21.14l-10.48-25.6Z"/>
          <path class="cls-1" d="M440.93,7.28l-26.43,39.51v25.41h-15.12v-25.41l-25.5-39.51h17.81l15.39,25.23,15.77-25.23h18.08Z"/>
          <path class="cls-1" d="M499.45,72.2l-4.82-11.69h-32l-4.82,11.69h-16.23l29.12-64.92h16.23l28.93,64.92h-16.41ZM478.77,21.84l-10.67,25.6h21.14l-10.48-25.6Z"/>
          <path class="cls-1" d="M574.38,7.28h15.12v64.92h-13.63l-29.4-40.16.19,17.53v22.63h-15.12V7.28h13.63l29.4,40.34-.19-17.34V7.28Z"/>
          <path class="cls-1" d="M670.55,72.2h-19.75l-22.81-25.78v25.78h-15.12V7.28h15.12v25.41l21.33-25.41h18.73l-27.36,31.81,29.86,33.11Z"/>
        </g>
        <g>
          <path class="cls-1" d="M235.6,150.66h-8.81v21.42h-15.21v-64.92h31.62c4.7,0,8.81.91,12.33,2.74,3.52,1.82,6.24,4.41,8.16,7.74,1.92,3.34,2.88,7.17,2.88,11.5,0,4.95-1.28,9.18-3.85,12.71-2.57,3.52-6.2,6.03-10.9,7.51l18.36,22.72h-18.08l-16.51-21.42ZM248.91,122.56c-1.76-1.61-4.25-2.41-7.47-2.41h-14.75v18.27h14.75c3.28,0,5.78-.79,7.51-2.37,1.73-1.58,2.6-3.82,2.6-6.72s-.88-5.16-2.64-6.77Z"/>
          <path class="cls-1" d="M338.17,172.08l-4.82-11.69h-32l-4.82,11.69h-16.23l29.12-64.92h16.23l28.93,64.92h-16.41ZM317.49,121.72l-10.67,25.6h21.14l-10.48-25.6Z"/>
          <path class="cls-1" d="M441.58,107.16h16.6l-22.72,64.92h-14.37l-6.12-18.08-7.42-21.79-7.23,21.79-6.21,18.08h-14.1l-22.81-64.92h16.6l8.16,25.87,5.29,18.46,14.75-44.33h10.94l15.12,44.61,5.66-18.73,7.88-25.87Z"/>
          <path class="cls-1" d="M561.49,107.16h13.63v64.92h-15.12v-40.62l-19.1,23.37h-2.97l-19.29-23.46v40.71h-15.12v-64.92h13.63l22.16,27.64,22.16-27.64Z"/>
          <path class="cls-1" d="M598.49,107.16h15.21v64.92h-15.21v-64.92Z"/>
          <path class="cls-1" d="M680.01,107.16h15.12v64.92h-13.63l-29.4-40.16.19,17.53v22.63h-15.12v-64.92h13.63l29.4,40.34-.19-17.34v-23Z"/>
          <path class="cls-1" d="M767.74,107.16v13.26h-19.85v51.66h-15.21v-51.66h-19.75v-13.26h54.81Z"/>
          <path class="cls-1" d="M777.9,170.78c-1.58-1.48-2.36-3.37-2.36-5.66s.79-4.17,2.36-5.66c1.58-1.48,3.6-2.23,6.07-2.23s4.41.74,5.98,2.23c1.58,1.48,2.37,3.37,2.37,5.66s-.79,4.17-2.37,5.66c-1.58,1.48-3.57,2.23-5.98,2.23s-4.5-.74-6.07-2.23Z"/>
        </g>
      </g>
    </g>
  </g>
</svg>